<svg height="512pt" viewBox="-38 0 512 512" width="512pt" xmlns="http://www.w3.org/2000/svg"><path d="m243.808594 220.777344c-8.285156 0-15 6.714844-15 15v182.835937c0 8.28125 6.714844 15 15 15 8.28125 0 15-6.71875 15-15v-182.835937c0-8.285156-6.71875-15-15-15zm0 0"/><path d="m173.96875 220.777344c-8.285156 0-15 6.714844-15 15v182.835937c0 8.28125 6.714844 15 15 15s15-6.71875 15-15v-182.835937c0-8.285156-6.714844-15-15-15zm0 0"/><path d="m104.132812 220.777344c-8.285156 0-15 6.714844-15 15v182.835937c0 8.28125 6.714844 15 15 15 8.28125 0 15-6.71875 15-15v-182.835937c0-8.285156-6.71875-15-15-15zm0 0"/><path d="m408.683594 220.070312h-60.746094v-61.476562c0-.035156-.003906-.070312-.003906-.109375l-.011719-8.53125c0-.503906-.027344-1.007813-.078125-1.507813-2.199219-21.476562-12.09375-41.414062-27.867188-56.132812-16-14.933594-36.648437-23.15625-58.128906-23.15625-1.257812 0-2.515625.027344-3.773437.085938-3.535157-16.621094-11.714844-31.863282-23.8125-44.023438-16.183594-16.261719-37.585938-25.21875-60.269531-25.21875-40.5625 0-74.707032 28.617188-83.742188 67.617188-1.371094-.066407-2.742188-.101563-4.113281-.101563-44.550781 0-82.28125 35.511719-86.0507815 80.910156-.0546875.511719-.078125 1.027344-.078125 1.542969v8.507812c0 .039063-.0078125.078126-.0078125.117188v292.070312c0 33.820313 27.515625 61.335938 61.335938 61.335938h225.265624c33.820313 0 61.335938-27.515625 61.335938-61.335938v-36.910156h5.878906c32.871094 0 56.09375-11.210937 69.03125-33.316406 6.5625-11.21875 13.273438-28.285156 13.273438-69.828125v-65.460937c0-13.828126-12.308594-25.078126-27.4375-25.078126zm-322.546875-122.554687c4.425781 0 8.875.550781 13.21875 1.636719 4.363281 1.097656 8.984375.171875 12.59375-2.515625 3.609375-2.683594 5.824219-6.847657 6.03125-11.339844 1.4375-31.007813 26.042969-55.296875 56.011719-55.296875 14.640624 0 28.492187 5.816406 39.003906 16.382812 10.605468 10.65625 16.65625 24.941407 17.039062 40.226563.113282 4.550781 2.285156 8.804687 5.910156 11.5625 3.621094 2.757813 8.300782 3.71875 12.71875 2.613281 4.332032-1.082031 8.769532-1.628906 13.183594-1.628906 25.871094 0 48.578125 18.96875 54.777344 44.4375h-285.558594c5.539063-26.371094 28.4375-46.078125 55.070313-46.078125zm231.800781 353.148437c0 17.277344-14.054688 31.335938-31.332031 31.335938h-225.269531c-17.277344 0-31.335938-14.058594-31.335938-31.335938v-277.070312h287.9375zm88.183594-140.054687c0 56.054687-12.21875 73.144531-52.304688 73.144531h-5.878906v-133.683594h58.183594zm0 0"/></svg>